<svg id="图层_1" data-name="图层 1" xmlns="http://www.w3.org/2000/svg" xmlns:xlink="http://www.w3.org/1999/xlink" viewBox="0 0 750 1624"><defs><style>.cls-1{fill:none;}.cls-2{fill:url(#未命名的渐变_48);}.cls-3,.cls-4,.cls-5{fill:#f2e9ac;}.cls-3{opacity:0.7;}.cls-4,.cls-6{opacity:0.2;}.cls-6{fill:#36acd6;}.cls-7{fill:url(#未命名的渐变_76);}.cls-8{fill:#3bace1;}.cls-9{fill:#3278b0;}.cls-10{fill:url(#未命名的渐变_32);}.cls-11,.cls-12{fill:#153d60;}.cls-12,.cls-31{opacity:0.4;}.cls-13{fill:#0c2b42;}.cls-14{fill:#204b7e;}.cls-15{fill:url(#未命名的渐变_57);}.cls-16{fill:#0d0e14;}.cls-17{fill:url(#未命名的渐变_54);}.cls-18{fill:url(#未命名的渐变_57-2);}.cls-19{clip-path:url(#clip-path);}.cls-20{fill:url(#未命名的渐变_54-2);}.cls-21{fill:#22b473;}.cls-22{fill:#39b44a;}.cls-23{fill:url(#未命名的渐变_54-3);}.cls-24{fill:url(#未命名的渐变_54-4);}.cls-25{fill:url(#未命名的渐变_54-5);}.cls-26{fill:url(#未命名的渐变_54-6);}.cls-27{fill:#2e74a9;}.cls-28{fill:#3987c0;}.cls-29{opacity:0.5;}.cls-30{fill:#eccd35;}.cls-32{fill:#112e55;}</style><linearGradient id="未命名的渐变_48" x1="375" y1="1243.66" x2="375" gradientUnits="userSpaceOnUse"><stop offset="0" stop-color="#65e2f9"/><stop offset="0.57" stop-color="#4668c1"/><stop offset="1" stop-color="#1a4dbf"/></linearGradient><linearGradient id="未命名的渐变_76" x1="375" y1="1624" x2="375" y2="1312.51" gradientUnits="userSpaceOnUse"><stop offset="0.62" stop-color="#538fc0"/><stop offset="1" stop-color="#1d4e7f"/></linearGradient><linearGradient id="未命名的渐变_32" x1="374.33" y1="1239.5" x2="374.33" y2="1342.02" gradientUnits="userSpaceOnUse"><stop offset="0" stop-color="#2e74a9"/><stop offset="0.55" stop-color="#3797d2"/></linearGradient><linearGradient id="未命名的渐变_57" x1="137.8" y1="1480.63" x2="737" y2="1480.63" gradientUnits="userSpaceOnUse"><stop offset="0" stop-color="#366e90"/><stop offset="1" stop-color="#133766"/></linearGradient><linearGradient id="未命名的渐变_54" x1="50.9" x2="50.9" y2="1558.89" gradientUnits="userSpaceOnUse"><stop offset="0" stop-color="#133766"/><stop offset="1" stop-color="#080507"/></linearGradient><linearGradient id="未命名的渐变_57-2" x1="440.09" y1="1426.68" x2="440.09" y2="1457.21" xlink:href="#未命名的渐变_57"/><clipPath id="clip-path"><rect class="cls-1" width="750" height="1623.78"/></clipPath><linearGradient id="未命名的渐变_54-2" x1="705.73" y1="-203.65" x2="705.73" y2="1640.6" xlink:href="#未命名的渐变_54"/><linearGradient id="未命名的渐变_54-3" x1="79.33" y1="1205.31" x2="165.6" y2="1205.31" gradientTransform="translate(183.47 267.26) rotate(7.81)" xlink:href="#未命名的渐变_54"/><linearGradient id="未命名的渐变_54-4" x1="154.33" y1="1547.94" x2="750" y2="1547.94" xlink:href="#未命名的渐变_54"/><linearGradient id="未命名的渐变_54-5" x1="220.01" y1="1602.65" x2="370.66" y2="1602.65" xlink:href="#未命名的渐变_54"/><linearGradient id="未命名的渐变_54-6" x1="306.94" y1="1607.07" x2="399.78" y2="1607.07" xlink:href="#未命名的渐变_54"/></defs><title>画板 1 副本 2</title><rect class="cls-2" width="750" height="1243.66"/><path class="cls-3" d="M112.84,161.22s-1.25-3.62-2.08-4.4-4.25-1.58-4.25-1.58,3.68-1.38,4.48-2.23,1.5-4.1,1.5-4.1,1.28,3.27,2.05,4,4.28,2,4.28,2-3.38.94-4.07,1.67S112.84,161.22,112.84,161.22Z"/><path class="cls-4" d="M114.35,272.06s-1.15-3.31-1.9-4-3.89-1.44-3.89-1.44,3.37-1.26,4.1-2,1.37-3.75,1.37-3.75a17,17,0,0,0,1.87,3.65,18.83,18.83,0,0,0,3.91,1.81s-3.08.86-3.71,1.53S114.35,272.06,114.35,272.06Z"/><path class="cls-4" d="M490.74,192.79a9.94,9.94,0,0,0-1.09-2.31,9,9,0,0,0-2.24-.83,10.64,10.64,0,0,0,2.36-1.17,8.18,8.18,0,0,0,.78-2.15,10,10,0,0,0,1.08,2.1,10.93,10.93,0,0,0,2.25,1,8.06,8.06,0,0,0-2.14.87A10.43,10.43,0,0,0,490.74,192.79Z"/><path class="cls-4" d="M306.65,207.84a9.94,9.94,0,0,0-1.09-2.31,8.53,8.53,0,0,0-2.23-.83,10.41,10.41,0,0,0,2.35-1.17,7.93,7.93,0,0,0,.79-2.15,9.73,9.73,0,0,0,1.08,2.1,10.52,10.52,0,0,0,2.24,1,8.12,8.12,0,0,0-2.13.88A10.12,10.12,0,0,0,306.65,207.84Z"/><path class="cls-4" d="M223.82,499.67s-1.15-3.31-1.9-4-3.89-1.44-3.89-1.44,3.37-1.26,4.1-2,1.37-3.75,1.37-3.75a17,17,0,0,0,1.87,3.65,18.31,18.31,0,0,0,3.91,1.81s-3.08.87-3.71,1.53S223.82,499.67,223.82,499.67Z"/><path class="cls-5" d="M509.7,121.67a11.66,11.66,0,0,0-1.28-2.71,10,10,0,0,0-2.63-1,12.4,12.4,0,0,0,2.77-1.38,9.66,9.66,0,0,0,.92-2.52,11.32,11.32,0,0,0,1.27,2.46,12.65,12.65,0,0,0,2.63,1.22,9.34,9.34,0,0,0-2.5,1A12.06,12.06,0,0,0,509.7,121.67Z"/><path class="cls-5" d="M428.67,83.07a11.25,11.25,0,0,0-1.28-2.71,10,10,0,0,0-2.62-1A12.37,12.37,0,0,0,427.53,78a9.3,9.3,0,0,0,.92-2.52,11.32,11.32,0,0,0,1.27,2.46,12.65,12.65,0,0,0,2.63,1.22,9.34,9.34,0,0,0-2.5,1A12.06,12.06,0,0,0,428.67,83.07Z"/><path class="cls-5" d="M598.52,193.66a6.57,6.57,0,0,0-.77-1.62,6,6,0,0,0-1.57-.59,7.69,7.69,0,0,0,1.66-.82,6,6,0,0,0,.55-1.52,6.69,6.69,0,0,0,.76,1.48,7.67,7.67,0,0,0,1.58.73,5.6,5.6,0,0,0-1.5.62A7.1,7.1,0,0,0,598.52,193.66Z"/><path class="cls-5" d="M76,426.21a7.16,7.16,0,0,0-.77-1.62,6,6,0,0,0-1.57-.59,7.69,7.69,0,0,0,1.66-.82,6,6,0,0,0,.55-1.52,6.69,6.69,0,0,0,.76,1.48,7.67,7.67,0,0,0,1.58.73,5.6,5.6,0,0,0-1.5.62A7.26,7.26,0,0,0,76,426.21Z"/><path class="cls-5" d="M443.13,421.71a7.16,7.16,0,0,0-.77-1.62,6,6,0,0,0-1.58-.59,7.69,7.69,0,0,0,1.66-.82,5.59,5.59,0,0,0,.55-1.52,7.16,7.16,0,0,0,.76,1.48,7.94,7.94,0,0,0,1.59.73,5.77,5.77,0,0,0-1.51.62A7.14,7.14,0,0,0,443.13,421.71Z"/><path class="cls-5" d="M164,454.21a7.16,7.16,0,0,0-.77-1.62,6,6,0,0,0-1.57-.59,7.69,7.69,0,0,0,1.66-.82,6,6,0,0,0,.55-1.52,6.69,6.69,0,0,0,.76,1.48,7.67,7.67,0,0,0,1.58.73,5.6,5.6,0,0,0-1.5.62A7.26,7.26,0,0,0,164,454.21Z"/><path class="cls-5" d="M324.6,175.68a7.19,7.19,0,0,0-.77-1.63,6.23,6.23,0,0,0-1.57-.58,7.15,7.15,0,0,0,1.65-.83,5.65,5.65,0,0,0,.56-1.51,6.45,6.45,0,0,0,.76,1.47,7.31,7.31,0,0,0,1.58.74,5.6,5.6,0,0,0-1.5.62A7.1,7.1,0,0,0,324.6,175.68Z"/><path class="cls-5" d="M506.48,251s-1.05-3-1.74-3.69-3.58-1.33-3.58-1.33,3.09-1.16,3.77-1.88,1.25-3.44,1.25-3.44a15.79,15.79,0,0,0,1.73,3.36,17.23,17.23,0,0,0,3.6,1.66s-2.84.79-3.42,1.4S506.48,251,506.48,251Z"/><path class="cls-5" d="M435.64,455s-1.05-3.05-1.75-3.7-3.57-1.33-3.57-1.33a17.27,17.27,0,0,0,3.77-1.87c.58-.62,1.25-3.45,1.25-3.45a15.56,15.56,0,0,0,1.73,3.36,16.69,16.69,0,0,0,3.59,1.66s-2.83.8-3.41,1.41S435.64,455,435.64,455Z"/><path class="cls-5" d="M448.33,241.59s-1.16-3.33-1.92-4.05-3.92-1.45-3.92-1.45,3.39-1.27,4.14-2.06,1.37-3.77,1.37-3.77a17.1,17.1,0,0,0,1.89,3.68,19.07,19.07,0,0,0,3.94,1.82s-3.11.87-3.74,1.54S448.33,241.59,448.33,241.59Z"/><path class="cls-5" d="M120.93,392.17s-1.16-3.34-1.92-4.05-3.92-1.46-3.92-1.46,3.39-1.27,4.14-2.06,1.37-3.77,1.37-3.77a17.1,17.1,0,0,0,1.89,3.68,18.55,18.55,0,0,0,3.94,1.82s-3.11.87-3.74,1.54S120.93,392.17,120.93,392.17Z"/><path class="cls-5" d="M459.59,367.5s-1.15-3.33-1.91-4.05-3.92-1.46-3.92-1.46,3.39-1.26,4.13-2.05,1.38-3.78,1.38-3.78a17.1,17.1,0,0,0,1.89,3.68,18.7,18.7,0,0,0,3.94,1.83s-3.11.87-3.74,1.54S459.59,367.5,459.59,367.5Z"/><path class="cls-3" d="M193.5,446.81s-1.26-3.62-2.08-4.4-4.25-1.58-4.25-1.58,3.68-1.38,4.48-2.23,1.49-4.1,1.49-4.1,1.29,3.27,2.06,4,4.28,2,4.28,2-3.38.94-4.07,1.67S193.5,446.81,193.5,446.81Z"/><path class="cls-4" d="M195,557.65s-1.15-3.31-1.9-4-3.89-1.44-3.89-1.44,3.36-1.26,4.1-2,1.36-3.75,1.36-3.75a17.14,17.14,0,0,0,1.88,3.65,18.83,18.83,0,0,0,3.91,1.81s-3.09.86-3.71,1.53S195,557.65,195,557.65Z"/><path class="cls-4" d="M571.4,478.38a9.94,9.94,0,0,0-1.09-2.31,9,9,0,0,0-2.24-.83,10.64,10.64,0,0,0,2.36-1.17,8.18,8.18,0,0,0,.78-2.15,9.51,9.51,0,0,0,1.08,2.1,10.9,10.9,0,0,0,2.24,1,7.79,7.79,0,0,0-2.13.88A10.22,10.22,0,0,0,571.4,478.38Z"/><path class="cls-4" d="M387.31,457.43a9.94,9.94,0,0,0-1.09-2.31,8.53,8.53,0,0,0-2.23-.83,10.41,10.41,0,0,0,2.35-1.17,8.46,8.46,0,0,0,.79-2.16,9.83,9.83,0,0,0,1.07,2.1,10.41,10.41,0,0,0,2.25,1,8.12,8.12,0,0,0-2.13.88A10.12,10.12,0,0,0,387.31,457.43Z"/><path class="cls-4" d="M304.48,785.26s-1.15-3.31-1.9-4-3.89-1.44-3.89-1.44,3.36-1.26,4.1-2,1.36-3.75,1.36-3.75a17.39,17.39,0,0,0,1.88,3.66,18.68,18.68,0,0,0,3.91,1.8s-3.09.87-3.71,1.53S304.48,785.26,304.48,785.26Z"/><path class="cls-5" d="M590.36,407.26a11.85,11.85,0,0,0-1.28-2.71,10,10,0,0,0-2.63-1,12.72,12.72,0,0,0,2.77-1.37,9.82,9.82,0,0,0,.92-2.53,11.32,11.32,0,0,0,1.27,2.46,12.14,12.14,0,0,0,2.63,1.22,9.34,9.34,0,0,0-2.5,1A12.06,12.06,0,0,0,590.36,407.26Z"/><path class="cls-5" d="M509.33,368.66a11.85,11.85,0,0,0-1.28-2.71,10,10,0,0,0-2.63-1,12.72,12.72,0,0,0,2.77-1.37,9.82,9.82,0,0,0,.92-2.53,11.32,11.32,0,0,0,1.27,2.46,12.14,12.14,0,0,0,2.63,1.22,9.34,9.34,0,0,0-2.5,1A12.06,12.06,0,0,0,509.33,368.66Z"/><path class="cls-5" d="M679.18,479.25a7,7,0,0,0-.77-1.62,6,6,0,0,0-1.57-.59,7.69,7.69,0,0,0,1.66-.82,6,6,0,0,0,.55-1.52,6.69,6.69,0,0,0,.76,1.48,7.67,7.67,0,0,0,1.58.73,5.6,5.6,0,0,0-1.5.62A7.26,7.26,0,0,0,679.18,479.25Z"/><path class="cls-5" d="M156.62,711.81a7.19,7.19,0,0,0-.77-1.63,6,6,0,0,0-1.57-.59,7.24,7.24,0,0,0,1.66-.82,6,6,0,0,0,.55-1.52,6.69,6.69,0,0,0,.76,1.48,7.67,7.67,0,0,0,1.58.73,5.6,5.6,0,0,0-1.5.62A7.3,7.3,0,0,0,156.62,711.81Z"/><path class="cls-5" d="M523.78,707.31a7.06,7.06,0,0,0-.76-1.63,6.12,6.12,0,0,0-1.58-.59,7.24,7.24,0,0,0,1.66-.82,5.59,5.59,0,0,0,.55-1.52,7.16,7.16,0,0,0,.76,1.48A7.7,7.7,0,0,0,526,705a5.77,5.77,0,0,0-1.51.62A7.3,7.3,0,0,0,523.78,707.31Z"/><path class="cls-5" d="M244.62,739.81a7.19,7.19,0,0,0-.77-1.63,6,6,0,0,0-1.57-.59,7.24,7.24,0,0,0,1.66-.82,6,6,0,0,0,.55-1.52,6.69,6.69,0,0,0,.76,1.48,7.67,7.67,0,0,0,1.58.73,5.6,5.6,0,0,0-1.5.62A7.3,7.3,0,0,0,244.62,739.81Z"/><path class="cls-5" d="M405.26,461.27a7.19,7.19,0,0,0-.77-1.63,6.27,6.27,0,0,0-1.58-.58,7.17,7.17,0,0,0,1.66-.83,5.65,5.65,0,0,0,.56-1.51,6.69,6.69,0,0,0,.76,1.48,7.67,7.67,0,0,0,1.58.73,5.77,5.77,0,0,0-1.51.62A7.41,7.41,0,0,0,405.26,461.27Z"/><path class="cls-5" d="M588.82,530.65s-1.06-3-1.75-3.7-3.58-1.33-3.58-1.33,3.1-1.15,3.77-1.87,1.26-3.45,1.26-3.45a15.56,15.56,0,0,0,1.73,3.36,16.84,16.84,0,0,0,3.59,1.67s-2.84.79-3.42,1.4S588.82,530.65,588.82,530.65Z"/><path class="cls-5" d="M516.3,740.56s-1.06-3-1.75-3.7-3.57-1.33-3.57-1.33,3.09-1.15,3.77-1.87,1.25-3.45,1.25-3.45a15.56,15.56,0,0,0,1.73,3.36,16.84,16.84,0,0,0,3.59,1.67s-2.84.79-3.41,1.4S516.3,740.56,516.3,740.56Z"/><path class="cls-5" d="M529,527.18s-1.16-3.33-1.92-4-3.92-1.46-3.92-1.46,3.39-1.27,4.13-2.06,1.38-3.77,1.38-3.77a17.1,17.1,0,0,0,1.89,3.68,18.55,18.55,0,0,0,3.94,1.82s-3.11.87-3.74,1.54S529,527.18,529,527.18Z"/><path class="cls-5" d="M201.59,677.76s-1.16-3.34-1.92-4-3.92-1.46-3.92-1.46,3.39-1.27,4.14-2,1.37-3.78,1.37-3.78a17.1,17.1,0,0,0,1.89,3.68,18.55,18.55,0,0,0,3.94,1.82s-3.11.87-3.74,1.54S201.59,677.76,201.59,677.76Z"/><path class="cls-5" d="M540.25,653.09s-1.15-3.33-1.91-4.05-3.92-1.46-3.92-1.46,3.39-1.26,4.13-2.05,1.38-3.78,1.38-3.78a17.1,17.1,0,0,0,1.89,3.68,18.7,18.7,0,0,0,3.94,1.83s-3.11.87-3.75,1.54S540.25,653.09,540.25,653.09Z"/><path class="cls-6" d="M252,1208.89s212-111.4,264-107.8,234,125.77,234,125.77v87.05l-498-4.41Z"/><rect class="cls-7" y="1312.51" width="750" height="311.49"/><path class="cls-8" d="M0,1122s51.11-27.16,113.79-27.16c40.9,0,210.71,90.66,210.71,90.66s66.83-21.14,86.32-27.65c49.51,5.84,192,73.15,192,73.15L750,1191v122.91H.67Z"/><polygon class="cls-9" points="388 1191.03 410.82 1157.85 346.5 1178.5 354.5 1186.5 266 1247.03 265 1259.03 331 1261.03 351 1217.03 401 1201.03 388 1191.03"/><path class="cls-10" d="M61.33,1181.67c68.67-1.34,157.51,56.61,214,63.33,28.93,3.44,69.34-18.15,116.82-18.15,50,0,128,70.55,179.18,73.48,17.23,1,67-11,97-11,41.5,0,81,24.58,81,24.58H0l-.67-93.84S45,1182,61.33,1181.67Z"/><path class="cls-11" d="M.12,1313.7l749.88.21s2.33-18.24-11.93-19.34c-19.67-1.51-27.4,8.1-27.4,8.1s-3.67-3.34-15.67-4-20.33,4.33-26.33,5.66-14.34-4-25.34-3.33c-12.35.75-23.33,3.67-36.66,6-5.34-6.33-8.53-7.61-14.67-7.67s-14.67,1.67-16,7.67c-4-6.67-16.91-13.79-26.33-13.67-13,.17-20.34,6.34-23.34,17.84-11.83,3-19.94-2.42-25.66-5.5-5.39-2.9-7.67-10-22.67-8.67-12.41,1.1-15.17,6-14.33,11.33-18.17,4.5-22.5,2-31-1-13.34-1.33-9.34-1-16.67-4.33s-10-5.67-19.67-4.67c-8,.83-24.71.42-22.58,8.92,6.25-9.12-2.42-26.25-24.42-26.25s-32.33,11.38-32.66,22c-3.05-9.5-9.34-21.83-25.34-24.5s-33.25-2.29-43.83,1.83c-10.25,4-17,20.3-15.88,23.3-11.37,4-28-13.3-51.5.75a35,35,0,0,0-45.79-4.05C140,1282.67,123,1262.67,99,1266s-27.5,8-37.5,18-14.24,25.11-24.12,20.13c-12.38-6.25-11.5-12.88-21.38-16.46a79.22,79.22,0,0,0-15.88-3.54Z"/><path class="cls-12" d="M.12,1312.84l749.88-.21s2.33,18.24-11.93,19.34c-19.67,1.51-27.4-8.1-27.4-8.1s-3.67,3.34-15.67,4-20.33-4.33-26.33-5.66-14.34,4-25.34,3.33c-12.35-.75-23.33-3.67-36.66-6-5.34,6.33-8.53,7.61-14.67,7.67s-14.67-1.67-16-7.67c-4,6.67-16.91,13.79-26.33,13.67-13-.17-20.34-6.34-23.34-17.84-11.83-3-19.94,2.42-25.66,5.5-5.39,2.9-7.67,10-22.67,8.67-12.41-1.1-15.17-6-14.33-11.33-18.17-4.5-22.5-2-31,1-13.34,1.33-9.34,1-16.67,4.33s-10,5.67-19.67,4.67c-8-.83-24.71-.42-22.58-8.92,6.25,9.12-2.42,26.25-24.42,26.25s-32.33-11.38-32.66-22c-3.05,9.5-9.34,21.83-25.34,24.5s-33.25,2.29-43.83-1.83c-10.25-4-17-20.3-15.88-23.3-11.37-4-28,13.3-51.5-.75a35,35,0,0,1-45.79,4C140,1343.87,123,1363.87,99,1360.54s-27.5-8-37.5-18-14.24-25.12-24.12-20.13c-12.38,6.25-11.5,12.88-21.38,16.46a79.22,79.22,0,0,1-15.88,3.54Z"/><path class="cls-13" d="M549.33,1310c.06-1.24,1-7.06,1-7.06l-2.67,4-1.78-1.81a15.2,15.2,0,0,1,.47,3.38c0,1.38-.16,5.43-.16,5.43h3.55A28.5,28.5,0,0,1,549.33,1310Z"/><path class="cls-13" d="M99.64,1289.66l-6.06,11.5-4.69-4s2.21,7.28,2.37,9.57c.15,2-1,7.14-1,7.14h8.63s-.46-7.43-.38-10C98.62,1300.44,99.64,1289.66,99.64,1289.66Z"/><path class="cls-13" d="M280.26,1297.73,276,1301l-6.5-7.25s2.27,10.65,2.44,12.94c.14,2-1,7.14-1,7.14h8.62s-.45-7.43-.37-10A21.56,21.56,0,0,1,280.26,1297.73Z"/><path class="cls-13" d="M354.14,1303.51l-2.77,2.13L347.2,1301s1.46,6.83,1.56,8.3a25.08,25.08,0,0,1-.64,4.58h5.54s-.29-4.76-.24-6.39A13.9,13.9,0,0,1,354.14,1303.51Z"/><path class="cls-13" d="M396.62,1308.92l-1.25-1.28a10.51,10.51,0,0,1,.33,2.39c0,1-.11,3.84-.11,3.84h2.51a19.08,19.08,0,0,1-.29-2.75c0-.89.7-5,.7-5Z"/><path class="cls-13" d="M477.71,1308.92l-1.26-1.28a10.51,10.51,0,0,1,.33,2.39c0,1-.11,3.84-.11,3.84h2.51a20.67,20.67,0,0,1-.29-2.75c.05-.89.71-5,.71-5Z"/><path class="cls-13" d="M5.39,1302.61,2.57,1308,.39,1306.1a38.51,38.51,0,0,1,1.1,4.45,18.55,18.55,0,0,1-.46,3.32H5s-.21-3.45-.17-4.63C4.92,1307.63,5.39,1302.61,5.39,1302.61Z"/><path class="cls-14" d="M4,1394.33s134.81,29.93,181.8,52.55c81,39,174,91.35,174,91.35L1.33,1539.89Z"/><path class="cls-15" d="M737,1389s-37.84-4.36-120.42,8.06c-34.77,5.23-94.5,31.5-129,58.5-48-18-150.11-2.08-201,16.5C159.44,1518.48,137.8,1573,137.8,1573L737,1557.34Z"/><path class="cls-16" d="M0,1465.88s186,15,264,54,162,102,162,102L.22,1624Z"/><path class="cls-17" d="M101.79,1558.89s-7.19-120.85-7.71-165c-1-84.8-36.23-227.77-37.29-363.05C55.89,917,39.86,753.47,37.58,667.17c-2.22-84-7.59-269.72-1-359.17C42.14,231.44,87.1,0,87.1,0h-33S36.77,51,24.77,85C10.57,125.25,0,161.67,0,161.67V1557Z"/><path class="cls-18" d="M477.55,1441.26a10.49,10.49,0,0,0-8,3.63,7.31,7.31,0,0,0-6.95-5.11,7.22,7.22,0,0,0-3.4.84,6,6,0,0,0,.13-1.21,5.82,5.82,0,1,0-11.64,0,6.38,6.38,0,0,0,.07.87,6.44,6.44,0,0,0-1.2-.53,8.72,8.72,0,0,0-8.69-8,8.87,8.87,0,0,0-2.49.36,9.82,9.82,0,0,0-18.61,4.37c0,.23,0,.46,0,.69a7.3,7.3,0,0,0-3.45,2.3,12,12,0,0,0-21.32,7.59,23.85,23.85,0,0,0-.41,2.92s17-2.61,44-.83c35.33,2.33,52.86,8,52.86,8l-.78-8A10.58,10.58,0,0,0,477.55,1441.26Z"/><g class="cls-19"><path class="cls-20" d="M574.5-203.65s37.77,120.8,38.17,165c.77,84.81,60.39,210.61,60.94,345.89.48,113.81,10.84,472.33,13.24,558.63,2.34,84-21,369.1-29.89,458.5-7.62,76.52-29.51,302.83-29.51,302.83l155.39,13.45-9.67-166.06,14.76-333.92L772.36,852.53l10.33-515.1L837,28.64,804.19,88.76l-71.4,80.1-58.7-119.8-54.78-199.8Z"/></g><path class="cls-21" d="M390.53,1543a18,18,0,0,0-13.64,6.22,12.47,12.47,0,0,0-17.72-7.31,10.19,10.19,0,0,0,.22-2.08,10,10,0,1,0-19.94,0,10.18,10.18,0,0,0,.13,1.48,11.44,11.44,0,0,0-2.06-.89,14.94,14.94,0,0,0-14.88-13.67,15.1,15.1,0,0,0-4.27.62,16.81,16.81,0,0,0-31.87,7.48c0,.39,0,.78.06,1.17a12.53,12.53,0,0,0-5.9,3.94,20.55,20.55,0,0,0-36.52,13c0,1.21.13,16.09.33,17.34H409.33L408,1556.59A18.1,18.1,0,0,0,390.53,1543Z"/><path class="cls-22" d="M156.14,1390.92a102.21,102.21,0,0,0-14,12.41c7.28-11.25-1.22-19.18-1.22-19.18-9.87,10.77-1.4,19.24,0,20.5a118.19,118.19,0,0,0-7.94,9.71,14.52,14.52,0,0,0-5.38-14.5c-7.1,10.39-1,17.16,1.86,19.51-2.42,3.63-4.62,7.32-6.62,11a14.52,14.52,0,0,0-5.36-14.61c-7.74,11.33.25,18.35,2.54,20-2.47,5-4.59,9.91-6.4,14.6a14.5,14.5,0,0,0-9.36-12.4c-3.72,11.81,3.82,16.55,7.29,18.06-1.63,4.68-2.95,9-4,12.89a14.56,14.56,0,0,0-9.88-9.54c-2.54,11.28,4.18,15.52,8,17-1.3,5.75-1.78,9.18-1.78,9.18h8.62c0-2.24.07-4.73.21-7.09a14.56,14.56,0,0,0,13.82-10.11c-6.11-1.59-10.23-.33-13,1.74a109.93,109.93,0,0,1,2.38-11.93c12.54,1.69,16.33-8.79,16.33-8.79-6.76-2.37-11.26-.91-14.19,1.41a129.26,129.26,0,0,1,4.73-12.33c11.5,5.24,18.15-3.68,18.15-3.68-6.62-4.86-11.89-4-15.43-2.09,1.91-3.84,3.93-7.45,6-10.83,12.37,6.67,19.57-3,19.57-3-7.7-5.65-13.58-3.6-17-1.08,2.69-4.13,5.37-7.84,7.91-11.11,11.15,8,19.51-.37,19.51-.37-6.54-6.4-12.4-5.58-16.21-3.75A124.92,124.92,0,0,1,156.14,1390.92Z"/><path class="cls-22" d="M169.32,1375c-15.72,2-13.18,15.92-13.18,15.92C170.85,1387.58,169.32,1375,169.32,1375Z"/><path class="cls-23" d="M174.2,1482a9.42,9.42,0,0,0-7.5,2.25,6.52,6.52,0,0,0-8.65-5,5.2,5.2,0,1,0-10.05-2.47,4.08,4.08,0,0,0,0,.78,5.77,5.77,0,0,0-1-.61,7.79,7.79,0,0,0-6.73-8.13,7.7,7.7,0,0,0-2.25,0,8.78,8.78,0,0,0-17,1.61c0,.2,0,.41,0,.61a6.52,6.52,0,0,0-3.33,1.62,10.74,10.74,0,0,0-19.82,4.14c-.08.63-1.07,8.33-1.06,9l17.9,2.45,67.4,9.24.28-7.2A9.45,9.45,0,0,0,174.2,1482Z"/><path class="cls-24" d="M249.67,1560c58-4.67,71.33,14,143.33,1,42.5-7.67,98.61-79.52,149.84-83.11,57-4,96,20.89,129,20.89s78-26.89,78-26.89L750,1624H154.33S180.93,1565.53,249.67,1560Z"/><path class="cls-16" d="M363.37,1581.48a11.72,11.72,0,0,0-9.09,3.87,8.43,8.43,0,0,0-7.92-6,8.21,8.21,0,0,0-3.88.89,7.27,7.27,0,0,0,.14-1.42,6.64,6.64,0,0,0-13.28,0,6.38,6.38,0,0,0,.09,1,8.76,8.76,0,0,0-1.37-.6,10,10,0,0,0-9.92-9.1,9.85,9.85,0,0,0-2.84.41,11.2,11.2,0,0,0-21.23,5c0,.26,0,.52,0,.78a8.36,8.36,0,0,0-3.93,2.63,13.65,13.65,0,0,0-10.63-5.07c-7.56,0-13.69,6.71-13.69,14.27a25.65,25.65,0,0,0,.22,3L312.17,1609H322l53-13.5C377,1586,369,1581.48,363.37,1581.48Z"/><path class="cls-25" d="M220,1623.72s20-58.26,76.91-37.77,73.74,36.86,73.74,36.86Z"/><path class="cls-26" d="M306.94,1623s5.46-39.15,54.61-30.5,36.87,30.5,36.87,30.5Z"/><path class="cls-27" d="M80.93,1183.26a6.19,6.19,0,0,0,1.58.3s-.36-3.54.16-3.8c.82-.06,1.23.48,1.69.7s-.54-.88,0-1,2.81-.46,2-.56S84,1177,84,1177s2.37.46,2.43,0c-.42-.54-2-1.22-2-1.87s1.75.14,2.17-.62c-.44-.38-2-2-3-3,.46.22,1.63,1,2,.57a20.88,20.88,0,0,1-2.33-3l1.44-.16L83,1167s1.1.3,1.2-.49a25.8,25.8,0,0,1-3-5.4h0a25.8,25.8,0,0,1-3,5.4c.1.79,1.2.49,1.2.49l-1.56,2,1.45-.08a13.86,13.86,0,0,1-1.94,2.34c.38.44,1.49.3,2,.08-1,1.1-2.72,2.77-3.16,3.15.42.76,1.93-.08,1.85.58s-1.61,1.33-2,1.87c.06.48,2.43,0,2.43,0s-1.55,1.81-2.35,1.91,1.52.46,2,.56-.5,1.19,0,1,.87-.76,1.69-.7c.52.26.16,3.8.16,3.8a6.09,6.09,0,0,0,1.57-.3Z"/><path class="cls-27" d="M125.37,1196.55a6.19,6.19,0,0,0,1.58.3s-.36-3.54.16-3.8c.81-.06,1.23.48,1.69.7s-.54-.88,0-1,2.81-.45,2-.55-2.34-1.92-2.34-1.92,2.36.46,2.42,0c-.41-.53-1.95-1.21-2-1.87s1.75.15,2.17-.61c-.44-.38-2.06-2-3-3,.46.22,1.63,1,2,.56a20.88,20.88,0,0,1-2.33-3l1.44-.16-1.65-1.87s1.09.3,1.2-.5a25.07,25.07,0,0,1-3-5.4h0a25.55,25.55,0,0,1-3,5.4c.1.8,1.19.5,1.19.5l-1.55,2,1.44-.08a14.14,14.14,0,0,1-1.93,2.35c.38.44,1.49.3,2,.08-1,1.09-2.72,2.77-3.16,3.15.42.75,1.93-.09,1.85.57s-1.61,1.34-2,1.87c.06.48,2.43,0,2.43,0s-1.55,1.82-2.35,1.92,1.52.45,2,.55-.49,1.2,0,1,.87-.76,1.69-.7c.51.26.16,3.8.16,3.8a6.16,6.16,0,0,0,1.57-.3Z"/><path class="cls-27" d="M118.47,1192.69a4,4,0,0,0,1,.19s-.23-2.21.1-2.37c.51,0,.77.3,1,.43s-.33-.54,0-.61,1.75-.28,1.25-.34-1.46-1.2-1.46-1.2,1.47.29,1.51,0c-.26-.33-1.21-.75-1.26-1.16s1.09.08,1.35-.39c-.27-.23-1.28-1.21-1.9-1.9.29.14,1,.62,1.25.35a13.06,13.06,0,0,1-1.45-1.85l.9-.1-1-1.17s.68.19.75-.31a15.91,15.91,0,0,1-1.9-3.36h0a15.69,15.69,0,0,1-1.89,3.36c.06.5.74.31.74.31l-1,1.27.9,0a8.82,8.82,0,0,1-1.2,1.46c.23.28.93.19,1.21,0-.62.69-1.69,1.73-2,2,.26.47,1.21,0,1.16.36s-1,.83-1.27,1.16c0,.3,1.52,0,1.52,0s-1,1.14-1.47,1.2.95.28,1.26.34-.31.75,0,.61.55-.47,1.06-.43c.32.16.1,2.37.1,2.37a4,4,0,0,0,1-.19Z"/><path class="cls-27" d="M145.25,1206.44a3.68,3.68,0,0,0,.91.42s.31-2.2.66-2.28c.51.09.68.48.92.68s-.19-.61.13-.6,1.76.15,1.3,0-1.14-1.51-1.14-1.51,1.37.63,1.48.35c-.18-.39-1-1-.95-1.44s1,.35,1.41,0c-.21-.3-1-1.49-1.39-2.31.24.21.83.85,1.13.65a13,13,0,0,1-1-2.15l.9.12-.72-1.38s.62.34.8-.13a15.77,15.77,0,0,1-1-3.72h0a16.11,16.11,0,0,1-2.65,2.82c-.06.49.65.48.65.48l-1.24,1,.88.16a8.66,8.66,0,0,1-1.52,1.13c.16.33.86.41,1.17.34-.77.52-2.07,1.27-2.39,1.44.14.52,1.18.24,1,.62s-1.18.57-1.51.83c0,.3,1.47.38,1.47.38s-1.21.86-1.71.8.85.51,1.13.64-.48.65-.17.59.65-.33,1.13-.17c.28.23-.47,2.32-.47,2.32a4,4,0,0,0,1,.06Z"/><path class="cls-27" d="M97,1185.27a8.54,8.54,0,0,0,2.22.42s-.5-5,.23-5.35c1.15-.08,1.74.68,2.38,1s-.76-1.24,0-1.38,3.95-.64,2.83-.78-3.31-2.7-3.31-2.7,3.34.65,3.42,0c-.58-.76-2.74-1.72-2.85-2.64s2.47.2,3.06-.86c-.62-.54-2.9-2.76-4.3-4.3.65.31,2.3,1.41,2.83.79-.65-.31-3.28-4.18-3.28-4.18l2-.23-2.33-2.64s1.54.43,1.68-.7c-2.18-2.55-4.28-7.6-4.28-7.6h0s-2.1,5.05-4.28,7.6c.14,1.13,1.68.7,1.68.7l-2.19,2.87,2-.11s-2.09,3-2.73,3.3c.53.62,2.1.42,2.75.11-1.4,1.55-3.84,3.91-4.46,4.44.59,1.06,2.72-.12,2.61.81s-2.27,1.88-2.85,2.64c.08.67,3.42,0,3.42,0s-2.19,2.56-3.31,2.7,2.13.64,2.83.78-.7,1.68,0,1.38,1.23-1.07,2.38-1c.73.36.23,5.35.23,5.35a8.54,8.54,0,0,0,2.22-.42Z"/><path class="cls-27" d="M109.64,1190.39a6.19,6.19,0,0,0,1.58.3s-.36-3.54.16-3.8c.82-.06,1.23.48,1.69.7s-.54-.88,0-1,2.81-.45,2-.55-2.34-1.92-2.34-1.92,2.36.46,2.42,0c-.41-.54-1.94-1.22-2-1.88s1.75.15,2.17-.61c-.44-.38-2.06-2-3-3.05.46.22,1.63,1,2,.56a20.88,20.88,0,0,1-2.33-3l1.44-.16-1.65-1.87s1.1.3,1.2-.5a25.57,25.57,0,0,1-3-5.39h0a25.57,25.57,0,0,1-3,5.39c.1.8,1.2.5,1.2.5l-1.56,2,1.44-.08a14.14,14.14,0,0,1-1.93,2.35c.38.44,1.49.3,2,.08-1,1.09-2.72,2.77-3.16,3.15.42.75,1.93-.08,1.85.57s-1.61,1.34-2,1.88c.06.47,2.43,0,2.43,0s-1.55,1.82-2.35,1.92,1.52.45,2,.55-.5,1.2,0,1,.87-.76,1.69-.7c.52.26.16,3.8.16,3.8a6.16,6.16,0,0,0,1.57-.3Z"/><path class="cls-27" d="M136.77,1201.72a7.8,7.8,0,0,0,1.83.87s.7-4.45,1.41-4.6c1,.19,1.36,1,1.85,1.4s-.38-1.25.26-1.21,3.58.35,2.64,0-2.26-3.09-2.26-3.09,2.75,1.32,3,.75c-.34-.79-2-2.11-1.88-2.94s2.1.74,2.86,0c-.42-.6-1.89-3-2.75-4.71.48.42,1.66,1.75,2.27,1.33-.49-.41-1.89-4.37-1.89-4.37l1.81.26-1.42-2.82s1.25.72,1.62-.22a32.56,32.56,0,0,1-2-7.58h0a32.35,32.35,0,0,1-5.45,5.62c-.13,1,1.3,1,1.3,1l-2.56,2,1.8.37a18,18,0,0,1-3.12,2.25c.32.65,1.73.84,2.36.72-1.57,1-4.22,2.51-4.88,2.83.27,1.06,2.39.52,2.08,1.3s-2.4,1.12-3.08,1.64c-.08.61,3,.8,3,.8s-2.48,1.72-3.48,1.59,1.7,1,2.28,1.32-1,1.31-.36,1.19,1.31-.65,2.29-.32c.55.49-1,4.7-1,4.7a7.54,7.54,0,0,0,2,.14Z"/><path class="cls-27" d="M156.18,1209a6.19,6.19,0,0,0,1.58.3s-.36-3.54.16-3.8c.82-.06,1.23.48,1.69.7s-.54-.88,0-1,2.81-.46,2-.56-2.34-1.91-2.34-1.91,2.37.46,2.43,0c-.42-.54-1.95-1.22-2-1.87s1.75.14,2.17-.62c-.44-.38-2.05-2-3.05-3,.46.22,1.63,1,2,.57a20.88,20.88,0,0,1-2.33-3l1.44-.16-1.65-1.88s1.1.3,1.2-.49a25.8,25.8,0,0,1-3-5.4h0a25.8,25.8,0,0,1-3,5.4c.1.79,1.2.49,1.2.49l-1.56,2,1.45-.08a13.86,13.86,0,0,1-1.94,2.34c.38.44,1.49.3,1.95.08-1,1.1-2.72,2.77-3.16,3.15.42.76,1.93-.08,1.85.58s-1.61,1.33-2,1.87c.06.48,2.43,0,2.43,0s-1.55,1.81-2.35,1.91,1.52.46,2,.56-.5,1.19,0,1,.87-.76,1.69-.7c.52.26.16,3.8.16,3.8a6.09,6.09,0,0,0,1.57-.3Z"/><path class="cls-27" d="M200.62,1222.3a6.19,6.19,0,0,0,1.58.3s-.36-3.54.16-3.8c.81-.06,1.23.48,1.69.7s-.54-.88,0-1,2.81-.45,2-.55-2.34-1.92-2.34-1.92,2.36.46,2.42,0c-.41-.53-1.95-1.21-2-1.87s1.75.15,2.17-.61c-.44-.38-2.06-2-3.05-3,.46.22,1.63,1,2,.56a20.88,20.88,0,0,1-2.33-3l1.44-.16-1.65-1.87s1.09.3,1.2-.5a25.07,25.07,0,0,1-3-5.4h0a25.55,25.55,0,0,1-3,5.4c.1.8,1.19.5,1.19.5l-1.55,2,1.44-.08a14.14,14.14,0,0,1-1.93,2.35c.38.44,1.49.3,1.95.08-1,1.09-2.72,2.77-3.16,3.15.42.75,1.93-.09,1.85.57s-1.61,1.34-2,1.87c.06.48,2.43,0,2.43,0s-1.55,1.82-2.35,1.92,1.52.45,2,.55-.49,1.2,0,1,.87-.76,1.69-.7c.51.26.16,3.8.16,3.8a6.16,6.16,0,0,0,1.57-.3Z"/><path class="cls-27" d="M193.72,1218.44a4,4,0,0,0,1,.19s-.23-2.21.1-2.37c.51,0,.77.3,1.05.43s-.33-.54,0-.61,1.75-.28,1.25-.34-1.46-1.2-1.46-1.2,1.47.29,1.51,0c-.26-.33-1.21-.75-1.26-1.16s1.09.08,1.35-.39c-.27-.23-1.28-1.21-1.9-1.9.29.14,1,.62,1.25.35a13.06,13.06,0,0,1-1.45-1.85l.9-.1-1-1.17s.68.19.75-.31a15.91,15.91,0,0,1-1.9-3.36h0A15.69,15.69,0,0,1,192,1208c.06.5.74.31.74.31l-1,1.27.9,0a8.82,8.82,0,0,1-1.2,1.46c.23.28.93.19,1.21,0-.62.69-1.69,1.73-2,2,.26.47,1.21,0,1.16.36s-1,.83-1.27,1.16c0,.3,1.52,0,1.52,0s-1,1.14-1.47,1.2.95.28,1.26.34-.31.75,0,.61.55-.47,1.06-.43c.32.16.1,2.37.1,2.37a4,4,0,0,0,1-.19Z"/><path class="cls-27" d="M220.5,1232.19a3.68,3.68,0,0,0,.91.42s.31-2.2.66-2.28c.51.09.68.48.92.68s-.19-.61.13-.6,1.76.15,1.3,0-1.14-1.51-1.14-1.51,1.37.63,1.48.35c-.18-.39-1-1-.95-1.44s1,.35,1.41,0c-.21-.3-1-1.49-1.39-2.31.24.21.83.85,1.13.65a13,13,0,0,1-1-2.15l.9.12-.72-1.38s.62.34.8-.13a15.77,15.77,0,0,1-1-3.72h0a16.11,16.11,0,0,1-2.65,2.82c-.06.49.65.48.65.48l-1.24,1,.88.16a8.66,8.66,0,0,1-1.52,1.13c.16.33.86.41,1.17.34-.77.52-2.07,1.27-2.39,1.44.14.52,1.18.24,1,.62s-1.18.57-1.51.83c0,.3,1.47.38,1.47.38s-1.21.86-1.71.8.85.51,1.13.64-.48.65-.17.59.65-.33,1.13-.17c.28.23-.47,2.32-.47,2.32a4,4,0,0,0,1,.06Z"/><path class="cls-27" d="M172.26,1211a8.54,8.54,0,0,0,2.22.42s-.5-5,.23-5.35c1.15-.08,1.74.68,2.38,1s-.76-1.24-.05-1.38,4-.64,2.83-.78-3.31-2.7-3.31-2.7,3.34.65,3.42,0c-.58-.76-2.74-1.72-2.85-2.64s2.47.2,3.06-.86c-.62-.54-2.9-2.76-4.3-4.3.65.31,2.3,1.41,2.83.79-.65-.31-3.28-4.18-3.28-4.18l2-.23-2.33-2.64s1.54.43,1.68-.7c-2.18-2.55-4.28-7.6-4.28-7.6h0s-2.1,5.05-4.28,7.6c.14,1.13,1.68.7,1.68.7l-2.19,2.87,2-.11s-2.09,3-2.73,3.3c.53.62,2.1.42,2.75.11-1.4,1.55-3.84,3.91-4.46,4.44.59,1.06,2.72-.12,2.61.81s-2.27,1.88-2.85,2.64c.08.67,3.42,0,3.42,0s-2.19,2.56-3.31,2.7,2.13.64,2.83.78-.7,1.68-.05,1.38,1.23-1.07,2.38-1c.73.36.23,5.35.23,5.35a8.54,8.54,0,0,0,2.22-.42Z"/><path class="cls-27" d="M184.89,1216.14a6.19,6.19,0,0,0,1.58.3s-.36-3.54.16-3.8c.82-.06,1.23.48,1.69.7s-.54-.88,0-1,2.81-.45,2-.55-2.34-1.92-2.34-1.92,2.36.46,2.42,0c-.41-.54-1.94-1.22-2-1.88s1.75.15,2.17-.61c-.44-.38-2.06-2-3.05-3.05.46.22,1.63,1,2,.56a20.88,20.88,0,0,1-2.33-3l1.44-.16-1.65-1.87s1.1.3,1.2-.5a25.57,25.57,0,0,1-3-5.39h0a25.57,25.57,0,0,1-3,5.39c.1.8,1.2.5,1.2.5l-1.56,2,1.44-.08a14.14,14.14,0,0,1-1.93,2.35c.38.44,1.49.3,2,.08-1,1.09-2.72,2.77-3.16,3.15.42.75,1.93-.08,1.85.57s-1.61,1.34-2,1.88c.06.47,2.43,0,2.43,0s-1.55,1.82-2.35,1.92,1.52.45,2,.55-.5,1.2,0,1,.87-.76,1.69-.7c.52.26.16,3.8.16,3.8a6.16,6.16,0,0,0,1.57-.3Z"/><path class="cls-27" d="M212,1227.47a7.8,7.8,0,0,0,1.83.87s.7-4.45,1.41-4.6c1,.19,1.36,1,1.85,1.4s-.38-1.25.26-1.21,3.58.35,2.64,0-2.26-3.09-2.26-3.09,2.75,1.32,3,.75c-.34-.79-2-2.11-1.88-2.94s2.1.74,2.86,0c-.42-.6-1.89-3-2.75-4.71.48.42,1.66,1.75,2.27,1.33-.49-.41-1.89-4.37-1.89-4.37l1.81.26-1.42-2.82s1.25.72,1.62-.22a32.56,32.56,0,0,1-2-7.58h0a32.35,32.35,0,0,1-5.45,5.62c-.13,1,1.3,1,1.3,1l-2.56,2,1.8.37a18,18,0,0,1-3.12,2.25c.32.65,1.73.84,2.36.72-1.57,1-4.22,2.51-4.88,2.83.27,1.06,2.39.52,2.08,1.3s-2.4,1.12-3.08,1.64c-.08.61,3,.8,3,.8s-2.48,1.72-3.48,1.59,1.7,1,2.28,1.32-1,1.31-.36,1.19,1.31-.65,2.29-.32c.55.49-1,4.7-1,4.7a7.54,7.54,0,0,0,2,.14Z"/><path class="cls-27" d="M249.12,1242.55a6.19,6.19,0,0,0,1.58.3s-.36-3.54.16-3.8c.81-.06,1.23.48,1.69.7s-.54-.88,0-1,2.81-.45,2-.55-2.34-1.92-2.34-1.92,2.36.46,2.42,0c-.41-.53-1.95-1.21-2-1.87s1.75.15,2.17-.61c-.44-.38-2.06-2-3.05-3,.46.22,1.63,1,2,.56a20.88,20.88,0,0,1-2.33-3l1.44-.16-1.65-1.87s1.09.3,1.2-.5a25.07,25.07,0,0,1-3-5.4h0a25.55,25.55,0,0,1-3,5.4c.1.8,1.19.5,1.19.5l-1.55,2,1.44-.08a14.14,14.14,0,0,1-1.93,2.35c.38.44,1.49.3,1.95.08-1,1.09-2.72,2.77-3.16,3.15.42.75,1.93-.09,1.85.57s-1.61,1.34-2,1.87c.06.48,2.43,0,2.43,0s-1.55,1.82-2.35,1.92,1.52.45,2,.55-.49,1.2,0,1,.87-.76,1.69-.7c.51.26.16,3.8.16,3.8a6.16,6.16,0,0,0,1.57-.3Z"/><path class="cls-27" d="M242.22,1238.69a4,4,0,0,0,1,.19s-.23-2.21.1-2.37c.51,0,.77.3,1.05.43s-.33-.54,0-.61,1.75-.28,1.25-.34-1.46-1.2-1.46-1.2,1.47.29,1.51,0c-.26-.33-1.21-.75-1.26-1.16s1.09.08,1.35-.39c-.27-.23-1.28-1.21-1.9-1.9.29.14,1,.62,1.25.35a13.06,13.06,0,0,1-1.45-1.85l.9-.1-1-1.17s.68.19.75-.31a15.91,15.91,0,0,1-1.9-3.36h0a15.69,15.69,0,0,1-1.89,3.36c.06.5.74.31.74.31l-1,1.27.9,0a8.82,8.82,0,0,1-1.2,1.46c.23.28.93.19,1.21,0-.62.69-1.69,1.73-2,2,.26.47,1.21,0,1.16.36s-1,.83-1.27,1.16c0,.3,1.52,0,1.52,0s-1,1.14-1.47,1.2.95.28,1.26.34-.31.75,0,.61.55-.47,1.06-.43c.32.16.1,2.37.1,2.37a4,4,0,0,0,1-.19Z"/><path class="cls-27" d="M269,1252.44a3.68,3.68,0,0,0,.91.42s.31-2.2.66-2.28c.51.09.68.48.92.68s-.19-.61.13-.6,1.76.15,1.3,0-1.14-1.51-1.14-1.51,1.37.63,1.48.35c-.18-.39-1-1-.95-1.44s1,.35,1.41,0c-.21-.3-1-1.49-1.39-2.31.24.21.83.85,1.13.65a13,13,0,0,1-1-2.15l.9.12-.72-1.38s.62.34.8-.13a15.77,15.77,0,0,1-1-3.72h0a16.11,16.11,0,0,1-2.65,2.82c-.06.49.65.48.65.48l-1.24,1,.88.16a8.66,8.66,0,0,1-1.52,1.13c.16.33.86.41,1.17.34-.77.52-2.07,1.27-2.39,1.44.14.52,1.18.24,1,.62s-1.18.57-1.51.83c0,.3,1.47.38,1.47.38s-1.21.86-1.71.8.85.51,1.13.64-.48.65-.17.59.65-.33,1.13-.17c.28.23-.47,2.32-.47,2.32a4,4,0,0,0,1,.06Z"/><path class="cls-27" d="M233.39,1236.39a6.19,6.19,0,0,0,1.58.3s-.36-3.54.16-3.8c.82-.06,1.23.48,1.69.7s-.54-.88,0-1,2.81-.45,2-.55-2.34-1.92-2.34-1.92,2.36.46,2.42,0c-.41-.54-1.94-1.22-2-1.88s1.75.15,2.17-.61c-.44-.38-2.06-2-3.05-3.05.46.22,1.63,1,2,.56a20.88,20.88,0,0,1-2.33-3l1.44-.16-1.65-1.87s1.1.3,1.2-.5a25.57,25.57,0,0,1-3-5.39h0a25.57,25.57,0,0,1-3,5.39c.1.8,1.2.5,1.2.5l-1.56,2,1.44-.08a14.14,14.14,0,0,1-1.93,2.35c.38.44,1.49.3,2,.08-1,1.09-2.72,2.77-3.16,3.15.42.75,1.93-.08,1.85.57s-1.61,1.34-2,1.88c.06.47,2.43,0,2.43,0s-1.55,1.82-2.35,1.92,1.52.45,2,.55-.5,1.2,0,1,.87-.76,1.69-.7c.52.26.16,3.8.16,3.8a6.16,6.16,0,0,0,1.57-.3Z"/><path class="cls-27" d="M260.52,1247.72a7.8,7.8,0,0,0,1.83.87s.7-4.45,1.41-4.6c1,.19,1.36,1,1.85,1.4s-.38-1.25.26-1.21,3.58.35,2.64,0-2.26-3.09-2.26-3.09,2.75,1.32,3,.75c-.34-.79-2-2.11-1.88-2.94s2.1.74,2.86,0c-.42-.6-1.89-3-2.75-4.71.48.42,1.66,1.75,2.27,1.33-.49-.41-1.89-4.37-1.89-4.37l1.81.26-1.42-2.82s1.25.72,1.62-.22a32.56,32.56,0,0,1-2-7.58h0a32.35,32.35,0,0,1-5.45,5.62c-.13,1,1.3,1,1.3,1l-2.56,2,1.8.37a18,18,0,0,1-3.12,2.25c.32.65,1.73.84,2.36.72-1.57,1-4.22,2.51-4.88,2.83.27,1.06,2.39.52,2.08,1.3s-2.4,1.12-3.08,1.64c-.08.61,3,.8,3,.8s-2.48,1.72-3.48,1.59,1.7,1,2.28,1.32-1,1.31-.36,1.19,1.31-.65,2.29-.32c.55.49-1,4.7-1,4.7a7.54,7.54,0,0,0,2,.14Z"/><path class="cls-5" d="M160.78,282.79a11.55,11.55,0,0,0-1.29-2.71,10.08,10.08,0,0,0-2.62-1,12.4,12.4,0,0,0,2.77-1.38,9.78,9.78,0,0,0,.92-2.52,11.65,11.65,0,0,0,1.26,2.46,12.91,12.91,0,0,0,2.64,1.22,9.34,9.34,0,0,0-2.5,1A12,12,0,0,0,160.78,282.79Z"/><rect class="cls-28" x="468.67" y="1367.12" width="96.67" height="7" rx="3.5" ry="3.5"/><rect class="cls-28" x="493.77" y="1379.38" width="51.21" height="3.62" rx="1.81" ry="1.81"/><g class="cls-29"><path class="cls-30" d="M368,1388.76H348a1.71,1.71,0,0,0-.12-2.45h11.29a1.72,1.72,0,0,0,0-3.44H300a1.73,1.73,0,0,0-1.72,1.72,1.68,1.68,0,0,0,.58,1.28H287.55a1.73,1.73,0,0,0-1.72,1.72,1.75,1.75,0,0,0,.46,1.17h-3.57a3.33,3.33,0,1,0,0,6.65H368a3.33,3.33,0,1,0,0-6.65Z"/><path class="cls-30" d="M360.41,1398.41H342.82v-.05a1.72,1.72,0,0,0-1.72-1.72H295.87a1.72,1.72,0,1,0,0,3.44h17.6a.07.07,0,0,0,0,.05,1.72,1.72,0,0,0,1.72,1.72h45.23a1.72,1.72,0,1,0,0-3.44Z"/><path class="cls-30" d="M331.06,1408.15a1.31,1.31,0,0,0-1.3-1.31H283.69a1.31,1.31,0,0,0,0,2.61h46.07A1.31,1.31,0,0,0,331.06,1408.15Z"/><path class="cls-30" d="M333.58,1409.45H291.35a1.31,1.31,0,1,0,0,2.61h42.23a1.31,1.31,0,1,0,0-2.61Z"/><path class="cls-30" d="M290.32,1382.65h59.2a1.72,1.72,0,1,0,0-3.44H327.66a1.72,1.72,0,0,0,0-3.44h-29a1.72,1.72,0,1,0,0,3.44h-8.32a1.72,1.72,0,1,0,0,3.44Z"/><ellipse class="cls-30" cx="350.75" cy="1363.13" rx="17" ry="0.88"/><ellipse class="cls-30" cx="336.51" cy="1358.87" rx="13.51" ry="1.13"/></g><g class="cls-31"><path class="cls-3" d="M314.86,1338.4a14,14,0,0,0,.4-3.55,12.24,12.24,0,0,0-2-2.63,14.87,14.87,0,0,0,3.66.34,11.6,11.6,0,0,0,2.52-2,14.14,14.14,0,0,0-.27,3.29,15,15,0,0,0,1.91,2.89,11.26,11.26,0,0,0-3.19-.53A14.37,14.37,0,0,0,314.86,1338.4Z"/><path class="cls-4" d="M272.9,1408.14a12.76,12.76,0,0,0,.37-3.24,11.06,11.06,0,0,0-1.87-2.41,13.59,13.59,0,0,0,3.35.32,10.73,10.73,0,0,0,2.3-1.81,12.1,12.1,0,0,0-.24,3,13.42,13.42,0,0,0,1.73,2.64,10.31,10.31,0,0,0-2.9-.48A12.89,12.89,0,0,0,272.9,1408.14Z"/><path class="cls-4" d="M518.18,1368.52a7.3,7.3,0,0,0,.21-1.86,6.54,6.54,0,0,0-1.07-1.38,7.54,7.54,0,0,0,1.92.18,6.13,6.13,0,0,0,1.32-1,7.42,7.42,0,0,0-.14,1.73,7.92,7.92,0,0,0,1,1.51,5.93,5.93,0,0,0-1.67-.27A7.27,7.27,0,0,0,518.18,1368.52Z"/><path class="cls-4" d="M431.67,1420a7.21,7.21,0,0,0,.22-1.86,6.63,6.63,0,0,0-1.08-1.39,7.63,7.63,0,0,0,1.93.18,5.84,5.84,0,0,0,1.32-1,7,7,0,0,0-.14,1.73,7.74,7.74,0,0,0,1,1.52,5.87,5.87,0,0,0-1.67-.28A7.72,7.72,0,0,0,431.67,1420Z"/><path class="cls-4" d="M232.86,1456.69a12.79,12.79,0,0,0,.37-3.25,11.21,11.21,0,0,0-1.87-2.4,13.69,13.69,0,0,0,3.35.31,10.43,10.43,0,0,0,2.3-1.81,12.66,12.66,0,0,0-.24,3,13.68,13.68,0,0,0,1.74,2.64,10,10,0,0,0-2.91-.48A13.16,13.16,0,0,0,232.86,1456.69Z"/><path class="cls-5" d="M557.53,1331.48a8.06,8.06,0,0,0,.25-2.18,7.46,7.46,0,0,0-1.25-1.63,9.3,9.3,0,0,0,2.25.22,7.25,7.25,0,0,0,1.56-1.22,8.45,8.45,0,0,0-.17,2,9.33,9.33,0,0,0,1.17,1.79,6.75,6.75,0,0,0-2-.33A8.81,8.81,0,0,0,557.53,1331.48Z"/><path class="cls-5" d="M542.16,1411.88a8.52,8.52,0,0,0,.25-2.19,7.33,7.33,0,0,0-1.26-1.62,9,9,0,0,0,2.26.21,7.14,7.14,0,0,0,1.55-1.22,8.61,8.61,0,0,0-.16,2,9.18,9.18,0,0,0,1.17,1.78,7.11,7.11,0,0,0-2-.33A9.15,9.15,0,0,0,542.16,1411.88Z"/><path class="cls-5" d="M585.09,1410.78a5,5,0,0,0,.15-1.31,4.78,4.78,0,0,0-.76-1,5.57,5.57,0,0,0,1.36.13,4.31,4.31,0,0,0,.93-.74,5.26,5.26,0,0,0-.1,1.22,5.79,5.79,0,0,0,.7,1.07,4.09,4.09,0,0,0-1.17-.2A5.24,5.24,0,0,0,585.09,1410.78Z"/><path class="cls-5" d="M169,1353.63a5.07,5.07,0,0,0,.15-1.32,4.47,4.47,0,0,0-.75-1,5.47,5.47,0,0,0,1.35.13,4.07,4.07,0,0,0,.93-.74,4.85,4.85,0,0,0-.09,1.22,5.31,5.31,0,0,0,.7,1.07,4.17,4.17,0,0,0-1.18-.2A5.58,5.58,0,0,0,169,1353.63Z"/><path class="cls-5" d="M356.45,1418.14a5.56,5.56,0,0,0,.15-1.32,4.78,4.78,0,0,0-.76-1,5.57,5.57,0,0,0,1.36.13,4.31,4.31,0,0,0,.93-.74,4.75,4.75,0,0,0-.1,1.22,5.79,5.79,0,0,0,.7,1.07,4.1,4.1,0,0,0-1.18-.2A5.77,5.77,0,0,0,356.45,1418.14Z"/><path class="cls-5" d="M213.1,1405.16a5.07,5.07,0,0,0,.15-1.32,4.47,4.47,0,0,0-.75-1,5.47,5.47,0,0,0,1.35.13,4.31,4.31,0,0,0,.93-.74,5.26,5.26,0,0,0-.1,1.22,5.72,5.72,0,0,0,.71,1.07,4.17,4.17,0,0,0-1.18-.2A5.58,5.58,0,0,0,213.1,1405.16Z"/><path class="cls-5" d="M441.38,1429.38a5,5,0,0,0,.15-1.31,4.47,4.47,0,0,0-.75-1,5.58,5.58,0,0,0,1.35.12,4.33,4.33,0,0,0,.93-.73,5.26,5.26,0,0,0-.1,1.22,5.72,5.72,0,0,0,.71,1.07,4.17,4.17,0,0,0-1.18-.2A5.24,5.24,0,0,0,441.38,1429.38Z"/><path class="cls-5" d="M524.77,1379.22a11.45,11.45,0,0,0,.34-3,10.38,10.38,0,0,0-1.72-2.21,12.72,12.72,0,0,0,3.08.29,9.69,9.69,0,0,0,2.12-1.67,11.45,11.45,0,0,0-.22,2.77,12.52,12.52,0,0,0,1.59,2.43,9.31,9.31,0,0,0-2.67-.45A12.3,12.3,0,0,0,524.77,1379.22Z"/><path class="cls-5" d="M338.91,1436a11.91,11.91,0,0,0,.34-3,10.38,10.38,0,0,0-1.72-2.21,12.23,12.23,0,0,0,3.08.29,9.58,9.58,0,0,0,2.11-1.67,11.45,11.45,0,0,0-.22,2.77,12.61,12.61,0,0,0,1.6,2.43,9.75,9.75,0,0,0-2.67-.45A12,12,0,0,0,338.91,1436Z"/><path class="cls-5" d="M472.82,1382.56a12.88,12.88,0,0,0,.38-3.27,11.15,11.15,0,0,0-1.88-2.42,13.33,13.33,0,0,0,3.37.31,10.62,10.62,0,0,0,2.32-1.82,12.33,12.33,0,0,0-.24,3,13.59,13.59,0,0,0,1.75,2.66,10.5,10.5,0,0,0-2.93-.49A13.55,13.55,0,0,0,472.82,1382.56Z"/><path class="cls-5" d="M210.27,1349.79a12.52,12.52,0,0,0,.37-3.27,11.26,11.26,0,0,0-1.88-2.43,13.77,13.77,0,0,0,3.37.32,10.38,10.38,0,0,0,2.32-1.82,12.79,12.79,0,0,0-.24,3,13.59,13.59,0,0,0,1.75,2.66,10.5,10.5,0,0,0-2.93-.49A13.06,13.06,0,0,0,210.27,1349.79Z"/><path class="cls-5" d="M387.71,1390.68a12.88,12.88,0,0,0,.37-3.26,11,11,0,0,0-1.88-2.43,13.72,13.72,0,0,0,3.37.32,10.66,10.66,0,0,0,2.32-1.83,12.33,12.33,0,0,0-.24,3,13.59,13.59,0,0,0,1.75,2.66,10.2,10.2,0,0,0-2.93-.48A13.09,13.09,0,0,0,387.71,1390.68Z"/></g><path class="cls-32" d="M749.68,39s-18.14,2.22-21.18,3.47c-17,7-43.1,34.74-47.5,34.5-9-.5-12.5-28.5-12.5-28.5s37-25.8,55-32.5c4.13-1.53,26.56-4.69,26.56-4.69Z"/></svg>